# xmcd CD database file
#
# Track frame offsets:
#	150
#	22381
#	42372
#	62539
#	90548
#	112542
#	138061
#	159631
#	177366
#	201209
#	220238
#	231815
#	253935
#	278802
#	308099
#
# Disc length: 4465 seconds
#
# Revision: 0
# Processed by: cddbd v1.5PL3 Copyright (c) Steve Scherf et al.
# Submitted via: CDex 1.51
#
DISCID=ce116f0f
DTITLE=Depeche Mode - Know How CD1
DYEAR=1900
DGENRE=New Age
TTITLE0=Personal Jesus
TTITLE1=World In My Eyes
TTITLE2=Halo
TTITLE3=Enjoy The Silnece
TTITLE4=Policy Of Truth
TTITLE5=Blue Dress
TTITLE6=Never Let Me Down Again
TTITLE7=The Things You Said
TTITLE8=Behind The Wheel
TTITLE9=Nothing
TTITLE10=Spanish Taster
TTITLE11=Never Let Me Down Again remix
TTITLE12=Barrel Of A Gun
TTITLE13=The Love Thieves
TTITLE14=It's No Good
EXTD=
EXTT0=
EXTT1=
EXTT2=
EXTT3=
EXTT4=
EXTT5=
EXTT6=
EXTT7=
EXTT8=
EXTT9=
EXTT10=
EXTT11=
EXTT12=
EXTT13=
EXTT14=
PLAYORDER=
